<svg width="28" height="14" viewBox="0 0 28 14" fill="none" xmlns="http://www.w3.org/2000/svg">
<path fill-rule="evenodd" clip-rule="evenodd" d="M7 0C5.14348 0 3.36301 0.737498 2.05025 2.05025C0.737498 3.36301 0 5.14348 0 7C0 8.85651 0.737498 10.637 2.05025 11.9497C3.36301 13.2625 5.14348 14 7 14H21C22.8565 14 24.637 13.2625 25.9497 11.9497C27.2625 10.637 28 8.85651 28 7C28 5.14348 27.2625 3.36301 25.9497 2.05025C24.637 0.737498 22.8565 0 21 0H7ZM7 3.5C6.07174 3.5 5.1815 3.86875 4.52513 4.52513C3.86875 5.1815 3.5 6.07174 3.5 7C3.5 7.92826 3.86875 8.8185 4.52513 9.47487C5.1815 10.1313 6.07174 10.5 7 10.5C7.92826 10.5 8.8185 10.1313 9.47487 9.47487C10.1313 8.8185 10.5 7.92826 10.5 7C10.5 6.07174 10.1313 5.1815 9.47487 4.52513C8.8185 3.86875 7.92826 3.5 7 3.5Z" fill="#969696"/>
</svg>
